<?xml version="1.0" standalone="no"?>
<!DOCTYPE svg PUBLIC "-//W3C//DTD SVG 20010904//EN"
 "http://www.w3.org/TR/2001/REC-SVG-20010904/DTD/svg10.dtd">
<svg version="1.0" xmlns="http://www.w3.org/2000/svg"
 width="640.000000pt" height="640.000000pt" viewBox="0 0 640.000000 640.000000"
 preserveAspectRatio="xMidYMid meet">
<metadata>
Created by potrace 1.16, written by Peter Selinger 2001-2019
</metadata>
<g transform="translate(0.000000,640.000000) scale(0.100000,-0.100000)"
fill="#000000" stroke="none">
<path d="M2895 6095 c-1082 -130 -1976 -811 -2383 -1815 -277 -684 -277 -1476
0 -2160 255 -629 714 -1148 1303 -1473 989 -545 2225 -461 3130 213 1205 897
1535 2546 768 3831 -447 751 -1201 1255 -2075 1390 -176 28 -568 35 -743 14z
m475 -295 c643 -47 1196 -291 1648 -725 223 -214 396 -452 532 -729 94 -192
140 -313 185 -490 114 -448 114 -864 0 -1312 -45 -177 -91 -298 -185 -490
-332 -679 -948 -1184 -1675 -1372 -778 -202 -1578 -45 -2224 438 -144 107
-383 340 -483 470 -387 503 -578 1085 -555 1695 10 249 35 414 101 643 121
418 342 789 660 1108 490 490 1102 750 1816 773 25 0 106 -4 180 -9z"/>
<path d="M1515 3870 c-32 -13 -75 -64 -85 -101 -6 -18 -10 -84 -10 -146 l0
-112 -57 27 c-51 24 -70 27 -163 27 -97 0 -110 -2 -172 -32 -356 -168 -318
-732 56 -839 112 -31 266 -5 333 58 l23 21 0 -36 0 -37 125 0 125 0 0 590 0
590 -77 -1 c-43 0 -87 -4 -98 -9z m-185 -565 c109 -57 139 -190 67 -296 -72
-107 -253 -105 -325 3 -54 83 -36 214 39 271 62 47 154 56 219 22z"/>
<path d="M2774 3866 c-17 -8 -42 -29 -55 -47 l-24 -34 -3 -537 -3 -538 131 0
130 0 0 585 0 585 -72 0 c-40 -1 -87 -7 -104 -14z"/>
<path d="M2053 3556 c-198 -64 -337 -292 -304 -497 21 -129 113 -265 218 -321
127 -69 276 -77 393 -21 80 37 155 103 197 174 57 95 62 89 -79 89 l-124 0
-54 -35 c-46 -30 -63 -35 -113 -35 -32 0 -70 6 -85 14 -35 18 -78 65 -87 94
l-6 22 305 0 305 0 7 37 c11 58 -12 180 -48 253 -42 86 -119 162 -205 203 -61
28 -79 32 -173 34 -68 2 -120 -2 -147 -11z m217 -228 c25 -13 55 -39 68 -58
l23 -35 -85 -3 c-47 -1 -126 -1 -176 0 l-90 3 26 38 c49 73 151 97 234 55z"/>
<path d="M4997 3546 c-142 -59 -226 -154 -271 -305 -35 -117 -10 -257 63 -368
48 -71 100 -114 189 -156 63 -30 74 -32 177 -32 104 0 114 2 177 33 37 18 89
54 116 80 48 47 112 144 112 170 0 11 -26 13 -127 10 -126 -3 -129 -3 -172
-35 -38 -29 -52 -33 -105 -33 -78 0 -132 29 -164 88 l-23 42 310 0 311 0 0 79
c0 189 -100 348 -266 423 -39 18 -72 23 -159 25 -98 3 -116 1 -168 -21z m216
-207 c40 -11 107 -70 107 -94 0 -13 -27 -15 -170 -15 -97 0 -170 4 -170 9 0
20 56 75 95 92 46 21 84 23 138 8z"/>
<path d="M3144 3539 c-41 -12 -91 -69 -99 -113 -4 -19 -5 -141 -3 -273 3 -237
3 -238 31 -295 57 -116 161 -178 298 -178 78 0 130 17 172 57 l27 27 0 -27 0
-27 130 0 130 0 -2 418 -3 417 -82 0 c-89 -1 -115 -12 -157 -69 -19 -25 -21
-45 -26 -244 -5 -237 -12 -266 -65 -290 -57 -26 -151 -7 -171 35 -5 10 -11
142 -14 293 l-5 275 -65 2 c-36 1 -79 -3 -96 -8z"/>
<path d="M3907 3543 c-3 -5 57 -94 134 -198 76 -105 137 -195 135 -202 -3 -6
-72 -103 -155 -216 -83 -113 -151 -209 -151 -214 0 -14 271 -3 302 13 16 8 58
59 99 120 l71 106 76 -121 77 -120 158 -3 c103 -2 157 1 157 7 0 6 -70 107
-155 224 -85 118 -151 219 -148 225 4 6 65 90 135 187 70 97 128 182 128 189
0 9 -33 11 -133 8 -159 -4 -163 -6 -246 -118 l-59 -79 -59 97 -59 97 -151 3
c-83 1 -154 -1 -156 -5z"/>
<path d="M5547 2828 c-24 -19 -38 -64 -27 -92 11 -30 47 -56 78 -56 33 0 72
43 72 80 0 60 -77 102 -123 68z"/>
</g>
</svg>
