<?xml version="1.0" standalone="no"?>
<!DOCTYPE svg PUBLIC "-//W3C//DTD SVG 20010904//EN"
 "http://www.w3.org/TR/2001/REC-SVG-20010904/DTD/svg10.dtd">
<svg version="1.0" xmlns="http://www.w3.org/2000/svg"
 width="494.000000pt" height="398.000000pt" viewBox="0 0 494.000000 398.000000"
 preserveAspectRatio="xMidYMid meet">
<metadata>
Created by potrace 1.16, written by Peter Selinger 2001-2019
</metadata>
<g transform="translate(0.000000,398.000000) scale(0.100000,-0.100000)"
fill="#000000" stroke="none">
<path d="M2032 3706 c-175 -57 -214 -261 -102 -530 41 -97 142 -263 241 -396
l82 -110 57 0 58 0 -34 108 c-52 163 -75 283 -81 432 -6 153 9 259 53 357 l24
56 -22 25 c-57 60 -186 87 -276 58z"/>
<path d="M2699 3705 c-25 -8 -62 -29 -83 -48 l-39 -33 25 -49 c92 -183 80
-506 -32 -829 -11 -33 -20 -63 -20 -68 0 -4 24 -8 54 -8 l55 0 57 73 c136 174
261 392 304 532 59 194 23 346 -99 414 -54 30 -156 37 -222 16z"/>
<path d="M1545 3521 c-109 -27 -168 -107 -168 -231 0 -144 82 -314 255 -532
l70 -88 60 0 c70 0 69 -12 9 130 -123 292 -132 488 -29 605 l42 48 -33 28
c-49 40 -135 57 -206 40z"/>
<path d="M3245 3521 c-40 -10 -88 -36 -104 -55 -11 -13 -9 -20 16 -44 100 -93
110 -275 27 -512 -18 -52 -46 -126 -63 -163 -17 -38 -31 -71 -31 -73 0 -3 28
-4 62 -2 l63 3 71 88 c146 183 239 364 251 490 11 118 -38 217 -123 253 -42
17 -130 25 -169 15z"/>
<path d="M725 1614 c-98 -10 -197 -39 -295 -86 -92 -44 -115 -61 -195 -142
-79 -79 -98 -105 -143 -196 -28 -58 -58 -132 -67 -165 -23 -85 -31 -296 -15
-392 38 -241 175 -441 371 -543 123 -64 208 -83 374 -83 123 0 151 4 230 27
354 106 565 404 565 795 0 248 -68 428 -220 581 -125 126 -280 192 -475 203
-49 2 -108 3 -130 1z m146 -260 c114 -33 205 -115 264 -239 53 -109 69 -189
69 -345 0 -118 -4 -145 -26 -212 -62 -186 -181 -291 -345 -305 -176 -14 -338
83 -417 250 -112 237 -94 570 40 730 41 49 121 106 172 121 63 20 176 20 243
0z"/>
<path d="M1780 1557 c35 -18 51 -36 75 -82 l30 -59 0 -600 c0 -550 -2 -605
-18 -652 -16 -48 -63 -104 -97 -117 -8 -4 183 -5 425 -3 491 3 495 3 650 76
154 71 254 170 332 324 60 118 76 199 77 376 0 179 -11 236 -77 370 -58 119
-176 238 -297 298 -168 84 -184 86 -695 90 l-450 3 45 -24z m742 -208 c237
-49 378 -251 378 -539 0 -184 -52 -323 -159 -431 -97 -97 -141 -111 -348 -117
l-163 -4 0 551 0 551 120 0 c65 0 143 -5 172 -11z"/>
<path d="M3480 1558 c40 -28 66 -76 80 -147 6 -31 10 -240 10 -500 0 -481 4
-528 54 -637 14 -30 48 -78 76 -108 106 -112 252 -159 495 -159 108 -1 169 4
219 16 195 49 309 154 372 347 16 49 18 111 23 555 l6 500 28 58 c21 42 39 63
65 77 l37 19 -280 1 -280 0 35 -21 c40 -25 54 -40 78 -89 15 -32 17 -81 17
-530 l0 -495 -24 -52 c-50 -112 -146 -160 -300 -151 -142 9 -219 60 -258 173
-16 45 -18 98 -18 535 l0 485 25 50 c14 28 40 60 59 72 l34 23 -293 0 -293 0
33 -22z"/>
</g>
</svg>
